<svg width="24" height="24" viewBox="0 0 24 24" fill="none" xmlns="http://www.w3.org/2000/svg">
<path d="M17.0001 19.4832C15.5201 20.4722 13.78 21 12 21C10.6097 21.0007 9.23821 20.6793 7.993 20.061C7.082 19.607 5.853 20.237 4.956 20.477C4.75761 20.5302 4.54872 20.5302 4.35033 20.477C4.15194 20.4239 3.97103 20.3194 3.8258 20.1742C3.68057 20.029 3.57613 19.8481 3.52297 19.6497C3.46982 19.4513 3.46983 19.2424 3.523 19.044C3.763 18.147 4.393 16.918 3.94 16.007C3.338 14.8 3 13.44 3 12C3 10.22 3.52784 8.47991 4.51677 6.99987C5.50571 5.51983 6.91131 4.36628 8.55585 3.68509C10.2004 3.0039 12.01 2.82567 13.7558 3.17294C15.5016 3.5202 17.1053 4.37737 18.364 5.63604C19.6226 6.89472 20.4798 8.49836 20.8271 10.2442C21.1743 11.99 20.9961 13.7996 20.3149 15.4442C19.6337 17.0887 18.4802 18.4943 17.0001 19.4832Z" stroke="#A3A4A5" stroke-width="2" stroke-linecap="round" stroke-linejoin="round"/>
</svg>
