<svg width="24" height="24" viewBox="0 0 24 24" fill="none" xmlns="http://www.w3.org/2000/svg">
<path d="M14.9412 19.8125C16.3529 15.4449 17.9129 13.8691 22 12.6875C17.9129 11.5059 16.3529 9.93012 14.9412 5.5625C13.5294 9.93012 11.9694 11.5059 7.88235 12.6875C11.9694 13.8691 13.5294 15.4449 14.9412 19.8125ZM5.52941 9.125C6.23529 6.94 7.01529 6.15269 9.05882 5.5625C7.01529 4.97231 6.23529 4.185 5.52941 2C4.82353 4.185 4.04353 4.97231 2 5.5625C4.04353 6.15269 4.82353 6.94 5.52941 9.125ZM7.29412 21C7.64706 19.9075 8.03647 19.5144 9.05882 19.2188C8.03647 18.9231 7.64706 18.53 7.29412 17.4375C6.94118 18.53 6.55176 18.9231 5.52941 19.2188C6.55176 19.5144 6.94118 19.9075 7.29412 21Z" stroke="#A3A4A5" stroke-width="2" stroke-linejoin="round"/>
</svg>
